<?xml version="1.0" encoding="UTF-8"?>
<svg width="1024px" height="1024px" viewBox="0 0 1024 1024" version="1.1" xmlns="http://www.w3.org/2000/svg" xmlns:xlink="http://www.w3.org/1999/xlink">
    <title>icon copy 4</title>
    <defs>
        <linearGradient x1="50%" y1="0%" x2="50%" y2="100%" id="linearGradient-1">
            <stop stop-color="#7391F2" offset="0%"></stop>
            <stop stop-color="#9AB1F0" offset="100%"></stop>
        </linearGradient>
    </defs>
    <g id="icon-copy-4" stroke="none" fill="none" fill-rule="nonzero">
        <path d="M524.980282,97.5120328 C577.131358,103.085025 619.316428,141.123688 631.096703,191.164362 L631.386487,192.444014 L632.925818,191.28597 C681.081826,155.621972 749.134991,159.969649 792.340221,203.474859 L793.755508,204.923282 C830.127653,242.755298 838.022227,299.04364 814.920008,344.958449 L814.321027,346.124183 L816.243118,346.22877 C876.029276,349.900312 925.369788,397.027786 930.536291,458.160291 L930.690567,460.180683 C934.264851,512.569702 904.174969,560.769782 857.000041,581.074677 L855.791481,581.5846 L857.198049,582.899313 C900.639749,624.188442 908.180634,692.044243 872.890946,742.199464 L871.712024,743.846461 C840.815998,786.279079 786.821052,803.837544 737.647088,789.031638 L736.39303,788.6446 L736.627343,790.556822 C743.39773,850.143895 705.610525,906.977541 646.377083,922.687292 L644.416593,923.190247 C593.506853,935.81177 540.871677,914.512819 512.707721,871.52396 L511.994335,870.41854 L510.947373,872.036042 C477.878509,922.039605 412.444266,941.258 356.983056,915.171515 L355.158334,914.295089 C308.056111,891.199766 281.40929,841.009415 287.43357,789.952569 L287.595641,788.648805 L285.756306,789.211939 C228.321479,806.234769 165.857608,778.845413 140.119547,723.168848 L139.2844,721.323131 C118.029349,673.317521 129.839226,617.720393 167.232915,582.485624 L168.192989,581.590908 L166.423545,580.838832 C111.497149,556.915758 81.2311891,495.734435 97.2594015,436.519473 L97.8046041,434.568096 C112.342199,384.114557 157.082802,349.125166 208.348977,346.199215 L209.657143,346.132594 L208.786214,344.416813 C182.06892,290.741708 198.162651,224.395838 248.457358,189.349819 L250.127804,188.205853 C293.655743,158.912157 350.392446,160.902428 391.543094,191.654379 L392.587483,192.446117 L393.02235,190.570373 C407.169248,131.617623 463.150504,90.9047505 524.980282,97.5120328 Z" id="Combined-Shape" fill="url(#linearGradient-1)"></path>
    </g>
</svg>